<?xml version="1.0" encoding="utf-8"?>
<!-- Generator: Adobe Illustrator 23.0.3, SVG Export Plug-In . SVG Version: 6.00 Build 0)  -->
<svg version="1.1" id="Layer_1" xmlns="http://www.w3.org/2000/svg" xmlns:xlink="http://www.w3.org/1999/xlink" x="0px" y="0px"
	 viewBox="0 0 1200 569.5" style="enable-background:new 0 0 1200 569.5;" xml:space="preserve">
<g>
	<g>
		<defs>
			<path id="SVGID_1_" d="M-26.1,378c0,0,11.7-8.4,19.4-10.3c1,0.2,4.5,0.2,4.5,0.2l1-1.2l2.9,0.5l2.2,0.2c0,0,0.2,0,1.4,0
				c1.2,0,5.5,0,5.5,0s1.4,0.5,2.4,0.5c1,0,2.9-0.7,2.9-0.7l2.4-1l2.6-1.2h3.3l-1.9,1.4l2.2,1l1.7-0.5h3.8h1.2l3.3,0.2l2.4,1.2v1.2
				c4.8-0.2,6.5-0.7,6.5-0.7s1.9-0.5,3.3,0c1.4,0.5,1.4,0.5,2.4,0.7c1,0.2,4.5,1.4,4.5,1.4l1.9-1c0,0-10.8-25.3-16.7-34.2
				c0,0-5-6.2-15.5-36.3c0.2,0.2-22-51.9-38.7-75.3c0-0.2-10.8-17.7-10.8-17.7V141c0,0,6.5-2.4,8.4,6.7c0.2,0.7,1.2,9.6,1.2,9.6
				s1.7,3.8,0.2,10.3c0.2,0,7.4-3.1,6.9-13.9c0,0.2,1.7-9.6,1.7-9.6s0.2-5.3,1-12.7c-0.5-0.5-2.6-10.5-2.9-14.6
				c-0.5,0-10.5-11.7-5.3-14.6c0-0.2,1.7-1.4,3.6,2.9c0.2,0.2,2.2,5.5,6,3.8c0.2,0,0.5-4.3,0.5-4.3s-4.3-4.8-2.2-10.8
				c0,0.2,1.7-5.3,4.1,0.7c0,0.2,1.4,5.3,4.5,8.8c0,0.2,4.8,2.6,3.8-2.9c0.2,0.2-0.5-6.2,3.6-4.3c0.2-0.2,3.8,2.4,8.1,18.9
				c0.2,0.2,2.2,8.1,2.4,17c0,0.2,1,11.5-1.9,20.5c-0.5,0.2,0.2,9.8,0.2,9.8s-0.2,4.1-1.7,8.4c0.2,0.5-1.4,6.2-1.4,6.2l-5,25.3
				c0,0,0,5,4.1,11.2c-0.2,0,4.5,4.3,9.6,14.6c0-0.2,26.1,35.4,26.1,35.4s18.2,14.1,35.6,44.2c-0.2,0.2,5.7,8.4,5.7,8.4
				s3.3-4.8,9.3-6.7c-0.2-0.2,3.8-4.3,6.9-4.1c0.2,0,3.8-1.2,3.8-1.2s-3.3-6.2-0.7-11.9c0,0.5-0.5-9.3-0.5-9.3s0-3.3-2.6-5.5
				c0.2,0-3.1-6.7,3.8-14.8c0.5,0-2.2-6.7-2.2-6.7s-3.1-2.6,2.4-8.1c0.7-0.7,6.5-10.5,14.6-12.4l2.4-1.9c0,0-10.3,10.5-9.8,12.9
				c0.2-0.2,3.1,3.3,9.3-0.5c0,0.2,6.5-6,11.5-2.6c0.5,0,3.6-12.7,12.2-18.2c0,0.2,8.4-2.9,8.4-2.9s-17.2,12.9-9.6,19.6
				c0.2,0,9.8-5,9.8-5s4.5-3.6,9.8,0.7c0,0.7,4.5,1.4,6.2,8.1c-0.2-0.5,7.9-6.5,9.3-3.1c1,0-1,0.5-1.4,5.7c0,1,1.4,7.2,1.4,7.2
				s3.8,8.1,7.2,11c0,0,6.7,5.7,4.8,11c0.5,1.9,2.9,5.7,2.9,5.7s12.9-18.6,4.3-23.9c-0.5,0.5-0.5-5.7,5.7-10c0,0,11-8.1-0.5-20.1
				c0.5,0.5-18.6-8.1-25.8-20.6c0.5,0.5-9.1-10.5-9.1-10.5s-6.2-3.8,0-5.3c1,0-1-5.3-1-5.3s-6.7-8.1,2.4-10
				c-0.5,0.5,12.4-7.2,20.1-13.4c-0.5,1,2.9-2.4,9.1-1.4c0,1.4,4.3-0.5,5.7-2.4c-0.5,0.5,3.3,1.4,1.4,6.2c0.5,0-9.6,11-0.5,19.6
				c0,0.5,12.4,15.8,12.4,15.8s12,15.3,12.9,18.6c1,0,3.8,4.3,0,11.9c0.5-0.5-0.5,20.1-0.5,20.1l5.3-5.3c0,0,1.4,12.4-3.3,13.9
				c-1.4,1.4-9.1,8.6-8.6,17.7c0,0.5-0.5,7.2-0.5,7.2s14.8-3.8,17.7-2.4c-1.4,0.5,6.7-7.6,6.7-7.6s4.3-4.3,9.6-2.9
				c-0.5,1,27.3,2.4,36.8,21.5c-0.5,0,11.5,22.9,11.5,22.9h7.6l1-13.4l15.8-5.7c0,0,3.8,1,7.7,11c0,0.5,5.7,9.6,5.7,9.6
				s7.6,7.6,8.1,20.1c0,0.5,23,32,23,32s4.3-5.3,9.6-2.9l14.3-20.1l2.4-8.6l1.4-8.6c0,0-23.4-25.3-30.6-33.9
				c-0.5,0-25.8-28.7-55.9-45.4c-1-0.5-12.9-8.6-12.9-8.6s-13.9-1-19.6-8.6c0-1-12.4-12.4-12.4-12.4l-9.1-8.6c0,0-6.7-3.8,2.4-5.3
				c-0.5-0.5,7.6,1,11,5.3c1,1,5.3,12.9,11.5,8.6c0.5,0,5.7-8.1,5.7-8.1s0.5-5.3-4.8-18.6l-6.2-11c0,0-12.9-12.4-16.7-15.8
				c0.5,1-4.3-1.4-0.5-5.7c0,0.5-2.9-3.3-2.9-3.3s-5.7-1.9,1-3.8c-1,0.5,4.3,2.4,4.3,2.4s0-7.2,4.8-3.3c0-0.5,8.1,6.2,8.1,6.2l2.9-1
				c0,0,3.8-1.4,4.3,1.4c0.5,0,19.1,21,19.1,21l7.2,5.7c0,0,4.8,3.8,2.9,9.1c0,0,1.4,19.6,6.7,30.6c1,1,12.9,5.7,17.7,13.9
				c-1-1,65.5,40.1,72.7,45.4c0-0.5,1.9-3.8,4.3-4.3c-1-0.5,0-15.8,6.7-19.6c1,0,4.3-11,10-5.7c0,0,1.9,2.9,0.5,6.2
				c0.5,0,7.6,2.4,4.3,7.6c0.5-0.5-1.4,28.2-1.4,28.2l17.7,16.7c0,0,4.3,3.8,3.8,17.7c0.5-1,14.3-3.8,18.2,4.3
				c0.5-0.5,8.6,1.4,8.6,1.4s-12.9-16.3-11.5-32c0.5,0,0-12.4,0-12.4s-5.7-19.6,5.3-11.9c-0.5,0.5,4.3,7.6,2.4,11.9
				c0,2.4,7.6-2.4,7.6-2.4l5.7-5.7l9.1-18.6c0,0,3.8-12.4,10-6.2c0.5,0-2.4,6.2-8.1,19.1c-1.4,0.5,1,4.8,1,4.8l11-14.8
				c0,0-0.5-11.5,1.9-20.1c-0.5,0,2.4-13.4,2.4-13.4v-6.7c0,0,1-8.1,5.3-3.8c0,0,3.8,2.9,2.4,10c0.5,0,9.1-2.4,6.2,4.8
				c0.5-0.5,0,13.4,0,13.4l1.4,17.7c0,0,4.3,2.9,1,8.6c0,1,1.4,8.1,1.4,8.1s7.2-1.9,3.8,5.3c0.5,1,1,18.6,1,18.6l3.8,4.8
				c0,0,2.9-16.3,3.3-19.6c-0.5-1,1.4-8.1,1.4-8.1s2.4-24.9,6.7-25.8c-1.4,1,1-14.8,7.2-7.2c-1.4,0-0.5,3.8-0.5,3.8s6.2-3.3,4.8,0
				c0-0.5-4.3,11.9-0.5,14.3c0.5-0.5,4.8,1,4.8,1s-2.9,17.2-2.4,24.9c0-0.5,1,19.1-1.9,27.7c0.5,0,4.8,24.9,15.3,32
				c-0.5,0,2.9,1,2.9,1s8.1-8.1,21.5-5.3c-1.4,1,15.8-5.3,22.5,5.3c0.5,0,9.1,6.2,9.1,6.2l15.8,9.1c0,0,13.9-10.5,22.9-7.6
				c2.9-0.5,15.3,0,20.6,1.4c-1,0,14.3,2.9,14.3,2.9l23.9,1.4c0,0,13.9-12.9,8.6-25.8c1,0,0.5-12.9-8.6-10c-1.4-0.5-4.8-2.4-4.8-2.4
				s-8.1-8.6,3.8-15.8c1,0,1-10,1-10s-2.4-33.5,13.4-25.3c1.4,0.5,11.5-2.9,12.9,2.9c1,1,19.1-18.2,26.3-6.7
				c0.5-0.5,14.3,1,16.3,5.7c-1.4-1.9,18.2,2.4,20.1,6.2c0.5,0,11,7.2,11,11.9c-0.5-1,10.5,4.3,9.6,14.3c0-1.9,10,3.8,5.7,13.9
				c1.9-0.5,1,3.8,1,3.8s25.8-10,39.7-1.9c-0.5,0,23.9,7.6,34,35.8c-0.5-1,0.5,10.5,0.5,10.5s2.9,12,12.9,18.2
				c0.5,0.5,12.4-17.2,28.7-23.4c0,1,4.3-9.6,12.9-11c0.5-0.5,3.3-25.8,21.5-34.9c0.5,0,6.7-1,6.7-1s22.9-5.3,47.8,0.5l13.9,3.8
				c0,0,22.5,1.9,26.8,10.5c0.5,0,17.7,8.6,18.6,21c1,1,22-13.9,40.6-8.1c0,0.5,9.1,1.9,9.1,1.9s30.6-3.8,36.8,9.1
				c-0.5-1-0.5,283.4-0.5,283.4H746.1l-594.3-0.5l-177.9,1V378L-26.1,378z"/>
		</defs>
		<use xlink:href="#SVGID_1_"  style="overflow:visible;fill-rule:evenodd;clip-rule:evenodd;"/>
		<clipPath id="SVGID_2_">
			<use xlink:href="#SVGID_1_"  style="overflow:visible;"/>
		</clipPath>
	</g>
</g>
</svg>
